<svg width="565" height="369" viewBox="0 0 565 369" fill="none" xmlns="http://www.w3.org/2000/svg">
<path d="M253.285 261.073C107.294 280.782 57.4373 374.444 41.8725 428.478L0.921595 512.36C11.3626 537.486 34.8803 591.497 45.4231 606.538C58.6016 625.338 210.169 660.854 245.543 662.079C280.917 663.304 463.253 673.286 476.653 670.081C490.054 666.877 719.444 533.571 754.735 504.067C782.968 480.464 822.469 303.865 838.691 218.515C796.371 149.636 701.279 9.86421 659.463 1.81242C617.647 -6.23938 526.013 30.822 485.423 50.3592C463.967 59.5526 419.569 92.8381 413.62 152.433C406.184 226.928 312.824 252.128 253.285 261.073Z" fill="#494966"/>
<path d="M298.619 303.916C152.628 323.626 102.771 417.288 87.2067 471.322L46.2557 555.203C56.6968 580.329 80.2145 634.341 90.7573 649.381C103.936 668.182 255.503 703.698 290.877 704.922C326.251 706.147 508.587 716.13 521.987 712.925C535.388 709.72 764.778 576.415 800.069 546.911C828.302 523.308 867.803 346.708 884.025 261.359C841.706 192.48 746.613 52.7079 704.797 44.6561C662.981 36.6044 571.347 73.6658 530.757 93.2029C509.301 102.396 464.903 135.682 458.954 195.277C451.518 269.771 358.159 294.972 298.619 303.916Z" fill="#191938"/>
<path d="M332.578 351.869C186.587 371.578 136.73 465.241 121.166 519.275L80.2147 603.156C90.6557 628.282 114.173 682.294 124.716 697.334C137.895 716.135 289.462 751.65 324.836 752.875C360.21 754.1 542.546 764.083 555.946 760.878C569.347 757.673 798.737 624.368 834.028 594.864C862.261 571.261 901.762 394.661 917.984 309.312C875.665 240.433 780.572 100.661 738.756 92.6091C696.94 84.5573 605.306 121.619 564.716 141.156C543.26 150.349 498.862 183.635 492.913 243.23C485.477 317.724 392.117 342.925 332.578 351.869Z" fill="#0A0A15"/>
</svg>
