<svg width="400" height="204" viewBox="0 0 400 204" fill="none" xmlns="http://www.w3.org/2000/svg">
<path d="M133.105 91.834C-9.93359 61.036 -91.6383 117.955 -126.517 154.958L-196.253 207.101C-196.052 229.888 -194.624 279.212 -190.517 294.208C-185.383 312.952 -58.0377 388.351 -25.6469 400.468C6.74393 412.586 172.316 477.89 185.973 479.635C199.63 481.379 463.061 450.384 506.989 438.637C542.131 429.239 645.564 304.713 692.888 243.625C679.617 176.833 644.127 38.386 608.333 18.939C572.539 -0.507933 473.426 -0.685385 428.344 1.65677C404.942 2.01522 351.126 13.8203 323.077 58.1732C288.016 113.614 191.783 103.691 133.105 91.834Z" fill="#494966"/>
<path d="M159.016 139.381C15.9778 108.583 -65.727 165.502 -100.605 202.505L-170.342 254.648C-170.141 277.436 -168.713 326.759 -164.606 341.755C-159.472 360.499 -32.1263 435.898 0.264481 448.016C32.6553 460.133 198.227 525.438 211.885 527.182C225.542 528.926 488.972 497.931 532.9 486.184C568.042 476.786 671.475 352.26 718.799 291.172C705.528 224.38 670.038 85.9332 634.244 66.4862C598.45 47.0392 499.337 46.8618 454.255 49.2039C430.853 49.5624 377.038 61.3675 348.989 105.72C313.927 161.161 217.695 151.238 159.016 139.381Z" fill="#191938"/>
<path d="M172.432 187.301C29.3933 156.503 -52.3114 213.422 -87.1897 250.425L-156.926 302.568C-156.726 325.355 -155.297 374.679 -151.19 389.674C-146.056 408.419 -18.7108 483.818 13.68 495.935C46.0708 508.052 211.643 573.357 225.3 575.102C238.957 576.846 502.388 545.85 546.315 534.104C581.458 524.706 684.891 400.18 732.215 339.092C718.944 272.299 683.454 133.853 647.66 114.406C611.866 94.9589 512.753 94.7814 467.671 97.1236C444.269 97.482 390.453 109.287 362.404 153.64C327.343 209.081 231.11 199.158 172.432 187.301Z" fill="#0A0A15"/>
</svg>
