<svg width="400" height="137" viewBox="0 0 400 137" fill="none" xmlns="http://www.w3.org/2000/svg">
<path d="M179.024 89.8212C326.231 127.977 383.191 89.2069 402.88 62.3293L450.199 26.3435C441.713 7.80292 422.398 -32.4198 413.034 -44.9854C401.329 -60.6925 252.805 -133.661 217.598 -146.482C182.391 -159.303 1.19806 -227.574 -12.4214 -230.244C-26.041 -232.915 -265.215 -231.887 -302.703 -226.369C-332.693 -221.954 -385.698 -130.225 -408.452 -84.9121C-371.518 -29.4039 -287.373 86.3853 -246.262 105.476C-205.152 124.567 -110.855 133.803 -68.8453 136.035C-46.7265 137.891 0.141205 133.232 10.662 99.754C23.8129 57.9063 118.919 74.8005 179.024 89.8212Z" fill="#494966"/>
<path d="M137.08 48.7966C284.286 86.9522 341.246 48.1824 360.935 21.3047L408.255 -14.681C399.768 -33.2216 380.453 -73.4444 371.089 -86.01C359.384 -101.717 210.86 -174.686 175.653 -187.507C140.446 -200.327 -40.7468 -268.598 -54.3663 -271.269C-67.9858 -273.939 -307.159 -272.912 -344.647 -267.394C-374.638 -262.979 -427.643 -171.25 -450.396 -125.937C-413.463 -70.4284 -329.318 45.3607 -288.207 64.4514C-247.096 83.5421 -152.8 92.7787 -110.79 95.0107C-88.6713 96.8662 -41.8036 92.2076 -31.2829 58.7295C-18.1319 16.8818 76.9745 33.776 137.08 48.7966Z" fill="#191938"/>
<path d="M106.879 8.61542C254.086 46.771 311.046 8.00116 330.735 -18.8765L378.054 -54.8622C369.568 -73.4028 350.253 -113.626 340.889 -126.191C329.184 -141.898 180.66 -214.867 145.453 -227.688C110.246 -240.508 -70.947 -308.779 -84.5665 -311.45C-98.186 -314.121 -337.36 -313.093 -374.848 -307.575C-404.838 -303.16 -457.843 -211.431 -480.597 -166.118C-443.663 -110.61 -359.518 5.1795 -318.407 24.2702C-277.297 43.3609 -183 52.5975 -140.99 54.8295C-118.872 56.685 -72.0038 52.0264 -61.4831 18.5482C-48.3321 -23.2994 46.7744 -6.40524 106.879 8.61542Z" fill="#0A0A15"/>
</svg>
