<svg width="581" height="354" viewBox="0 0 581 354" fill="none" xmlns="http://www.w3.org/2000/svg">
<path d="M294.402 102.267C495.785 77.7755 539.617 -8.14276 546.188 -57.0851L580.196 -133.856C558.18 -155.778 509.331 -202.851 490.064 -215.77C465.981 -231.918 240.843 -256.431 190.326 -255.85C139.808 -255.269 -121.638 -255.547 -139.722 -252.054C-157.807 -248.561 -444.873 -118.781 -486.456 -90.7891C-519.722 -68.3959 -525.072 91.0232 -523.589 167.934C-443.811 227.381 -268.852 347.576 -207.239 352.781C-145.627 357.985 -26.3081 320.586 25.6497 301.235C53.4396 292.018 106.854 260.222 98.1908 206.774C87.3623 139.964 212.531 113.064 294.402 102.267Z" fill="#494966"/>
<path d="M217.819 66.1895C419.202 41.6983 463.034 -44.2199 469.604 -93.1623L503.613 -169.933C481.597 -191.855 432.748 -238.928 413.481 -251.847C389.398 -267.996 164.26 -292.509 113.743 -291.928C63.2253 -291.347 -198.221 -291.625 -216.305 -288.131C-234.39 -284.638 -521.456 -154.858 -563.039 -126.866C-596.305 -104.473 -601.655 54.946 -600.172 131.856C-520.394 191.304 -345.435 311.499 -283.822 316.704C-222.21 321.908 -102.891 284.509 -50.9333 265.158C-23.1434 255.941 30.2706 224.145 21.6078 170.697C10.7793 103.886 135.948 76.9866 217.819 66.1895Z" fill="#191938"/>
<path d="M155.901 25.0159C357.284 0.524719 401.116 -85.3935 407.687 -134.336L441.695 -211.107C419.679 -233.029 370.83 -280.101 351.563 -293.02C327.48 -309.169 102.342 -333.682 51.8249 -333.101C1.30731 -332.52 -260.139 -332.798 -278.223 -329.305C-296.308 -325.812 -583.374 -196.031 -624.957 -168.04C-658.223 -145.647 -663.573 13.7724 -662.09 90.6828C-582.312 150.13 -407.353 270.326 -345.74 275.53C-284.128 280.735 -164.809 243.335 -112.851 223.985C-85.0614 214.768 -31.6473 182.972 -40.3102 129.523C-51.1387 62.7127 74.0304 35.813 155.901 25.0159Z" fill="#0A0A15"/>
</svg>
